<?xml version="1.0" encoding="UTF-8" standalone="no"?>
<svg
   xmlns:dc="http://purl.org/dc/elements/1.1/"
   xmlns:cc="http://creativecommons.org/ns#"
   xmlns:rdf="http://www.w3.org/1999/02/22-rdf-syntax-ns#"
   xmlns:svg="http://www.w3.org/2000/svg"
   xmlns="http://www.w3.org/2000/svg"
   xmlns:sodipodi="http://sodipodi.sourceforge.net/DTD/sodipodi-0.dtd"
   xmlns:inkscape="http://www.inkscape.org/namespaces/inkscape"
   width="2083"
   height="3000"
   version="1.1"
   id="svg14"
   sodipodi:docname="ymcabg.svg"
   inkscape:version="0.92.3 (2405546, 2018-03-11)">
  <metadata
     id="metadata20">
    <rdf:RDF>
      <cc:Work
         rdf:about="">
        <dc:format>image/svg+xml</dc:format>
        <dc:type
           rdf:resource="http://purl.org/dc/dcmitype/StillImage" />
        <dc:title />
      </cc:Work>
    </rdf:RDF>
  </metadata>
  <defs
     id="defs18" />
  <sodipodi:namedview
     pagecolor="#ffffff"
     bordercolor="#666666"
     borderopacity="1"
     objecttolerance="10"
     gridtolerance="10"
     guidetolerance="10"
     inkscape:pageopacity="0"
     inkscape:pageshadow="2"
     inkscape:window-width="1366"
     inkscape:window-height="715"
     id="namedview16"
     showgrid="false"
     inkscape:zoom="0.14053993"
     inkscape:cx="739.74425"
     inkscape:cy="1748.2327"
     inkscape:window-x="-8"
     inkscape:window-y="-8"
     inkscape:window-maximized="1"
     inkscape:current-layer="svg14"
     inkscape:pagecheckerboard="false" />
  <path
     style="fill:#b50409;fill-opacity:1;stroke:none;stroke-width:13.74579811"
     d="M 17.149707,165.95598 463.50747,1014.8199 1047.5916,2108.2716 1729.9406,827.782 2065.8503,165.95598 Z M 700.04991,568.80662 h 722.29819 l -374.7565,676.21358 z"
     id="path2-6"
     inkscape:connector-curvature="0"
     sodipodi:nodetypes="cccccccccc" />
  <g
     id="g63"
     transform="translate(-616.3918,-270.38579)">
    <path
       sodipodi:nodetypes="cccccccccc"
       inkscape:connector-curvature="0"
       id="path2-7"
       d="m 1860.8918,2674.4225 33.9883,59 44.4756,76 51.958,-89 25.5781,-46 z m 52,28 h 55 l -28.5361,47 z"
       style="fill:#b50409;fill-opacity:1;stroke:none" />
    <path
       sodipodi:nodetypes="ccccccsccccsc"
       inkscape:connector-curvature="0"
       id="path910-5"
       d="m 1298.8918,2774.4225 c 10.0755,33.1184 26.0724,67.7058 37.8002,97 3.2755,8.189 9.0613,17.954 10.1381,26.715 1.8143,14.761 -23.7333,29.213 -35.9383,30.285 l 8,34 c 20.9279,-0.432 40.2203,-14.772 52.115,-31 22.6327,-30.878 33.4788,-71.2276 45.743,-107 l 17.142,-50 -41.4869,1.028 -23.5131,86.972 -27.51,-88.064 c 0,0 -8.9419,0.064 -12.49,0.064 h -30"
       style="fill:#b50409;fill-opacity:1;stroke:none" />
    <path
       sodipodi:nodetypes="cccccssssccscscccsccccc"
       inkscape:connector-curvature="0"
       id="path908-3"
       d="m 1478.8918,2795.4225 -1.875,-20.4045 h -32.883 c 0,0 -0.1395,88.8606 0.4716,133.3056 h 35.0879 l 0.4245,-80.1407 c 0.014,-2.6566 0.7827,-7.6073 2.1024,-9.851 4.2261,-7.1849 11.763,-11.3548 19.118,-11.0537 8.796,0.3601 18.9386,8.8803 19.0376,18.2513 0.2663,25.2096 -0.168,82.7941 -0.168,82.7941 h 40.5146 l -0.089,-82.992 c -0.017,-15.707 23.299,-24.1341 34.044,-11.8901 6.404,7.296 6.214,16.876 6.214,25.981 v 43 l 0.3452,25.9011 h 38.6548 v -67.9011 c 0,-15.695 0.593,-31.854 -7.529,-46 -15.473,-26.9526 -64.044,-25.8112 -78.471,2 v 0 c -7.242,-24.3828 -41.468,-25.7887 -60,-15.12 -6.135,3.532 -10.416,8.873 -15,14.12"
       style="fill:#b50409;fill-opacity:1;stroke:none" />
    <path
       sodipodi:nodetypes="cccccacccccc"
       inkscape:connector-curvature="0"
       id="path906-7"
       d="m 1756.8918,2874.4225 c -11.715,2.71 -23.021,6.179 -35,2.251 -25.428,-8.339 -32.579,-43.852 -12.91,-61.95 12.871,-11.842 30.467,-10.239 45.91,-5.301 2.089,-6.16 5.357,-28.57 5.357,-28.57 0,0 -8.0145,-3.9279 -12.357,-4.625 -13.834,-2.2206 -28.597,-1.761 -42,1.673 -26.559,6.806 -46.178,29.118 -48.83,56.522 -4.014,41.472 20.103,70.283 60.83,75.285 10.515,1.291 21.666,0.207 32,-2.172 2.93,-0.675 9.958,-3.816 9.958,-3.816 l -2.958,-29.297"
       style="fill:#b50409;fill-opacity:1;stroke:none" />
    <path
       sodipodi:nodetypes="ccccccccccsccccccccc"
       inkscape:connector-curvature="0"
       id="path6-8"
       d="m 1830.1496,2774.9577 c -5.4392,-0.01 -10.899,0.3494 -16.2578,1.2187 -11.251,1.824 -22.085,4.4601 -32,10.2461 l 7,25 c 16.389,-4.719 59.241,-22.276 60,10 -20.751,0 -44.234,1.4141 -60.998,15.3281 -22.661,18.808 -19.764,58.8611 8.998,70.2071 21.448,8.461 38.818,-0.4792 56,-12.5352 l 2,13 h 36 c -0.276,-13.35 -2,-26.609 -2,-40 0,-31.329 6.967,-74.9921 -30,-88.4551 -6.234,-2.271 -12.44,-3.1537 -19,-3.6347 -3.2224,-0.2359 -6.4786,-0.3705 -9.7422,-0.375 z m 10.7012,71.4082 c 3.0161,-0.055 6.0455,0.057 9.041,0.057 0,6.616 1.2103,14.604 -0.6387,21 -9.069,31.375 -55.9287,4.1297 -29.3457,-15.3613 3.524,-2.583 7.7824,-3.797 11.9844,-4.75 2.94,-0.6665 5.9429,-0.8899 8.959,-0.9453 z"
       style="fill:#b50409;fill-opacity:1;stroke:none" />
    <path
       sodipodi:nodetypes="ccccccccccccc"
       inkscape:connector-curvature="0"
       id="path850-1"
       d="m 1809.8918,2920.4225 0.6671,117.5565 h 25.2223 l 0.3306,-27.5528 5.78,-6.0037 19,33 h 30 l -30.263,-49 25.263,-32 -27.907,1.603 -22.593,32.397 -0.5,-70 h -25"
       style="fill:#00378c;fill-opacity:1;stroke:none" />
    <path
       sodipodi:nodetypes="ccc"
       inkscape:connector-curvature="0"
       id="path848-2"
       d="m 1625.8928,2922.9955 c -16.136,4.651 -6.047,28.294 9.984,22.724 15.832,-5.5 5.009,-27.047 -9.984,-22.724"
       style="fill:#00378c;fill-opacity:1;stroke:none" />
    <path
       sodipodi:nodetypes="ccccccccccccc"
       inkscape:connector-curvature="0"
       id="path844-9"
       d="m 1448.8918,3015.4225 c -1.522,4.033 -2.958,17.49 -2.958,17.49 0,0 10.885,4.69 14.958,5.221 14.592,1.901 35.519,0 41.87,-15.711 5.457,-13.497 -1.042,-26.352 -13.87,-32.135 -4.824,-2.175 -19.723,-5.076 -18.029,-12.772 2.306,-10.479 20.31,-2.654 26.029,-1.093 1.14,-4.018 2.933,-16.49 2.933,-16.49 0,0 -10.933,-4.145 -14.933,-4.42 -14.124,-0.973 -31.267,1.761 -36.906,16.91 -5.198,13.966 2.926,25.486 15.906,30.985 4.708,1.995 18.996,5.153 15.712,12.96 -4.624,10.996 -23.701,1.93 -30.712,-0.945"
       style="fill:#00378c;fill-opacity:1;stroke:none" />
    <path
       sodipodi:nodetypes="cscccccccscccccccccccc"
       inkscape:connector-curvature="0"
       id="path882-8"
       d="m 1753.5695,2954.3611 c -5.1115,0.082 -10.1588,0.7551 -14.6777,1.7069 -3.681,0.7753 -13.8789,5.5019 -13.8789,5.5019 0,0 2.1209,11.8275 2.8789,15.5489 10.834,-2.6087 34.898,-13.0655 37,6.0973 -13.001,0.1097 -29.0022,1.9336 -38.8262,11.484 -13.502,13.1245 -9.2408,35.3105 8.8262,41.4769 12.324,4.2061 23.044,0.4484 33,-6.2149 0.59,10.8136 14.8792,6.8635 22.8342,6.8635 -0.021,-2.5257 -1.1396,-3.5097 -1.0673,-6.5327 0.4966,-20.7834 4.7436,-52.9396 -7.8724,-66.3413 -6.5256,-6.9319 -16.2702,-9.4117 -26.0234,-9.5886 -0.7315,-0.013 -1.4631,-0.014 -2.1934,0 z m 7.4961,45.0827 c 0.6914,-0.01 1.3837,6e-4 2.0743,0.01 0.9206,0.01 1.8387,0.024 2.7519,0.024 0,3.9562 0.4855,8.3158 -0.3945,12.1926 -4.922,21.6648 -34.9956,2.3361 -17.5606,-9.138 2.07,-1.3617 4.5501,-2.1169 6.9551,-2.5782 2.029,-0.3899 4.0997,-0.4933 6.1738,-0.5081 z"
       style="fill:#00378c;fill-opacity:1;stroke:none;stroke-width:1.00807631" />
    <path
       sodipodi:nodetypes="cccccccccccccc"
       inkscape:connector-curvature="0"
       id="path880-5"
       d="m 1569.2258,2955.0846 c -2.6341,-0.04 -5.4139,0.2325 -8.334,0.8555 -7.948,1.696 -13.055,6.4014 -19,11.4824 l 0.1118,-9.7776 -22.1118,-0.2224 v 112 h 25 v -40 c 14.077,14.946 38.944,10.445 50.084,-6 16.2158,-23.9374 5.3329,-67.868 -25.75,-68.3379 z m -8.1758,19.377 c 19.6833,0.238 22.6312,39.4664 3.8418,44.4023 -24.731,6.497 -28.02,-39.0732 -8,-43.9082 1.4595,-0.3524 2.846,-0.51 4.1582,-0.4941 z"
       style="fill:#00378c;fill-opacity:1;stroke:none" />
    <path
       sodipodi:nodetypes="ccccc"
       inkscape:connector-curvature="0"
       id="path10-2"
       d="m 1617.8918,2957.4225 v 79 h 25 v -79 z"
       style="fill:#00378c;fill-opacity:1;stroke:none" />
    <g
       id="text819"
       style="font-style:normal;font-variant:normal;font-weight:bold;font-stretch:normal;font-size:138.19348145px;line-height:1.25;font-family:Verdana;-inkscape-font-specification:'Verdana Bold';letter-spacing:0px;word-spacing:0px;fill:#000000;fill-opacity:1;stroke:none;stroke-width:1.26396358"
       transform="matrix(0.9701635,0,0,1.0307541,1296.0014,2673.4225)"
       aria-label="t">
      <path
         sodipodi:nodetypes="ccscsccccccccccssccscccc"
         inkscape:connector-curvature="0"
         id="path821-4"
         style="fill:#00378c;fill-opacity:1;stroke-width:1.26396358"
         d="m 427.59738,351.18692 c -2.60912,0.67477 -5.37569,1.1921 -8.29971,1.55198 -2.92401,0.40486 -6.50031,0.60729 -10.72888,0.60729 -9.44682,0 -16.48695,-1.91185 -21.12039,-5.73556 -4.58846,-3.82371 -6.88269,-10.36901 -6.88269,-19.63589 v -35.42558 h -9.98664 V 276.0847 h 9.98664 v -14.75709 l 24.29183,-6.90312 v 21.66021 h 22.73984 v 16.46446 h -22.73984 v 26.85596 c 0,2.65411 0.0225,4.97083 0.0675,6.95016 0.045,1.97933 0.40488,3.75624 1.07964,5.33071 0.62979,1.57447 1.73192,2.83404 3.30639,3.77872 1.61945,0.8997 3.95866,1.34955 7.01763,1.34955 1.25958,0 2.90153,-0.26991 4.92585,-0.80973 2.0693,-0.53982 3.50881,-1.03465 4.31854,-1.4845 h 2.02432 z" />
    </g>
  </g>
</svg>
