<?xml version="1.0" encoding="UTF-8" standalone="no"?>
<svg
   xmlns:dc="http://purl.org/dc/elements/1.1/"
   xmlns:cc="http://creativecommons.org/ns#"
   xmlns:rdf="http://www.w3.org/1999/02/22-rdf-syntax-ns#"
   xmlns:svg="http://www.w3.org/2000/svg"
   xmlns="http://www.w3.org/2000/svg"
   xmlns:sodipodi="http://sodipodi.sourceforge.net/DTD/sodipodi-0.dtd"
   xmlns:inkscape="http://www.inkscape.org/namespaces/inkscape"
   width="722"
   height="397"
   version="1.1"
   id="svg14"
   sodipodi:docname="ymcalogo1.svg"
   inkscape:version="0.92.3 (2405546, 2018-03-11)">
  <metadata
     id="metadata20">
    <rdf:RDF>
      <cc:Work
         rdf:about="">
        <dc:format>image/svg+xml</dc:format>
        <dc:type
           rdf:resource="http://purl.org/dc/dcmitype/StillImage" />
        <dc:title />
      </cc:Work>
    </rdf:RDF>
  </metadata>
  <defs
     id="defs18" />
  <sodipodi:namedview
     pagecolor="#ffffff"
     bordercolor="#666666"
     borderopacity="1"
     objecttolerance="10"
     gridtolerance="10"
     guidetolerance="10"
     inkscape:pageopacity="0"
     inkscape:pageshadow="2"
     inkscape:window-width="1366"
     inkscape:window-height="715"
     id="namedview16"
     showgrid="false"
     inkscape:zoom="2.8284271"
     inkscape:cx="642.76035"
     inkscape:cy="197.34695"
     inkscape:window-x="-8"
     inkscape:window-y="-8"
     inkscape:window-maximized="1"
     inkscape:current-layer="svg14"
     inkscape:pagecheckerboard="false" />
  <path
     style="fill:#b50409;fill-opacity:1;stroke:none"
     d="m 564,1 33.98828,59 44.47557,76 L 694.42188,47 720,1 Z m 52,28 h 55 l -28.53615,47 z"
     id="path2"
     inkscape:connector-curvature="0"
     sodipodi:nodetypes="cccccccccc" />
  <path
     style="fill:#b50409;fill-opacity:1;stroke:none"
     d="m 2,101 c 10.075498,33.11835 26.072414,67.70581 37.8002,97 3.2755,8.189 9.0613,17.954 10.1381,26.715 C 51.7526,239.476 26.205,253.928 14,255 l 8,34 c 20.9279,-0.432 40.2203,-14.772 52.115,-31 22.6327,-30.878 33.47882,-71.22767 45.743,-107 L 137,101 95.5131,102.028 72,189 44.49,100.93593 c 0,0 -8.9419,0.0641 -12.49,0.0641 H 2"
     id="path910"
     inkscape:connector-curvature="0"
     sodipodi:nodetypes="ccccccsccccsc" />
  <path
     style="fill:#b50409;fill-opacity:1;stroke:none"
     d="m 182,122 -1.875,-20.4045 h -32.883 c 0,0 -0.1395,88.8606 0.47154,133.30555 h 35.08791 l 0.42457,-80.14067 c 0.0141,-2.65665 0.78269,-7.60731 2.1024,-9.85102 4.22607,-7.18493 11.76298,-11.35479 19.118,-11.05368 8.79593,0.3601 18.9386,8.88033 19.03759,18.25126 0.2663,25.20964 -0.16799,82.79411 -0.16799,82.79411 h 40.51457 l -0.0886,-82.99194 C 263.72522,136.20206 287.041,127.775 297.786,140.019 304.19,147.315 304,156.895 304,166 v 43 l 0.34516,25.90105 H 343 V 167 c 0,-15.695 0.593,-31.854 -7.529,-46 C 319.998,94.0474 271.427,95.1888 257,123 v 0 c -7.242,-24.3828 -41.468,-25.7887 -60,-15.12 -6.135,3.532 -10.416,8.873 -15,14.12"
     id="path908"
     inkscape:connector-curvature="0"
     sodipodi:nodetypes="cccccssssccscscccsccccc" />
  <path
     style="fill:#b50409;fill-opacity:1;stroke:none"
     d="m 460,201 c -11.715,2.71 -23.021,6.179 -35,2.251 -25.428,-8.339 -32.579,-43.852 -12.91,-61.95 12.871,-11.842 30.467,-10.239 45.91,-5.301 2.089,-6.16 5.357,-28.57 5.357,-28.57 0,0 -8.01454,-3.92794 -12.357,-4.625 -13.834,-2.22066 -28.597,-1.761 -42,1.673 -26.559,6.806 -46.178,29.118 -48.83,56.522 -4.014,41.472 20.103,70.283 60.83,75.285 10.515,1.291 21.666,0.207 32,-2.172 2.93,-0.675 9.958,-3.816 9.958,-3.816 L 460,201"
     id="path906"
     inkscape:connector-curvature="0"
     sodipodi:nodetypes="cccccacccccc" />
  <path
     style="fill:#b50409;fill-opacity:1;stroke:none"
     d="m 533.25781,101.53516 c -5.43927,-0.008 -10.89906,0.34937 -16.25781,1.21875 -11.251,1.824 -22.085,4.46009 -32,10.24609 l 7,25 c 16.389,-4.719 59.241,-22.276 60,10 -20.751,0 -44.23405,1.41412 -60.99805,15.32812 -22.661,18.808 -19.76395,58.86104 8.99805,70.20704 21.448,8.461 38.818,-0.47916 56,-12.53516 l 2,13 h 36 c -0.276,-13.35 -2,-26.609 -2,-40 0,-31.329 6.967,-74.99208 -30,-88.45508 -6.234,-2.271 -12.44,-3.15376 -19,-3.63476 -3.22237,-0.23588 -6.47863,-0.37046 -9.74219,-0.375 z m 10.70117,71.4082 C 546.97511,172.88798 550.0045,173 553,173 c 0,6.616 1.21033,14.604 -0.63867,21 -9.069,31.375 -55.9287,4.12967 -29.34571,-15.36133 3.524,-2.583 7.78238,-3.797 11.98438,-4.75 2.94,-0.6665 5.94286,-0.88994 8.95898,-0.94531 z"
     id="path6"
     inkscape:connector-curvature="0"
     sodipodi:nodetypes="ccccccccccsccccccccc" />
  <path
     style="fill:#00378c;fill-opacity:1;stroke:none"
     d="m 513,247 0.66707,117.5565 h 25.22236 L 539.21994,337.00363 545,331 l 19,33 h 30 L 563.737,315 589,283 561.093,284.603 538.5,317 538,247 h -25"
     id="path850"
     inkscape:connector-curvature="0"
     sodipodi:nodetypes="ccccccccccccc" />
  <path
     style="fill:#00378c;fill-opacity:1;stroke:none"
     d="m 329.001,249.573 c -16.136,4.651 -6.047,28.294 9.984,22.724 15.832,-5.5 5.009,-27.047 -9.984,-22.724"
     id="path848"
     inkscape:connector-curvature="0"
     sodipodi:nodetypes="ccc" />
  <path
     style="fill:#00378c;fill-opacity:1;stroke:none"
     d="m 152,342 c -1.522,4.033 -2.958,17.49 -2.958,17.49 0,0 10.885,4.69 14.958,5.221 14.592,1.901 35.519,0 41.87,-15.711 5.457,-13.497 -1.042,-26.352 -13.87,-32.135 -4.824,-2.175 -19.723,-5.076 -18.029,-12.772 2.306,-10.479 20.31,-2.654 26.029,-1.093 1.14,-4.018 2.933,-16.49 2.933,-16.49 0,0 -10.933,-4.145 -14.933,-4.42 -14.124,-0.973 -31.267,1.761 -36.906,16.91 -5.198,13.966 2.926,25.486 15.906,30.985 4.708,1.995 18.996,5.153 15.712,12.96 -4.624,10.996 -23.701,1.93 -30.712,-0.945"
     id="path844"
     inkscape:connector-curvature="0"
     sodipodi:nodetypes="ccccccccccccc" />
  <path
     style="fill:#00378c;fill-opacity:1;stroke:none;stroke-width:1.00807631"
     d="m 456.67773,280.93853 c -5.11155,0.0823 -10.15881,0.75518 -14.67773,1.70693 -3.68102,0.77528 -13.87891,5.50187 -13.87891,5.50187 0,0 2.12091,11.82754 2.87891,15.54893 10.834,-2.60864 34.898,-13.06552 37,6.0973 -13.001,0.10975 -29.00217,1.93364 -38.82617,11.48406 -13.502,13.12445 -9.24083,35.31042 8.82617,41.47683 12.324,4.20612 23.044,0.44847 33,-6.21487 0.59,10.81358 14.87914,6.86353 22.83414,6.86353 -0.0206,-2.52571 -1.13952,-3.50978 -1.06729,-6.53275 0.49659,-20.78339 4.74368,-52.93957 -7.87232,-66.34127 -6.52562,-6.93188 -16.27022,-9.41176 -26.02344,-9.58857 -0.73149,-0.0132 -1.46313,-0.0137 -2.19336,-0.002 z m 7.4961,45.08276 c 0.69138,-0.005 1.3837,5.8e-4 2.07422,0.008 0.92068,0.009 1.8387,0.0238 2.75195,0.0238 0,3.95614 0.48547,8.31576 -0.39453,12.19263 -4.922,21.66475 -34.99555,2.3361 -17.56055,-9.13802 2.07,-1.36173 4.55008,-2.11689 6.95508,-2.57826 2.02894,-0.38985 4.09969,-0.49329 6.17383,-0.50811 z"
     id="path882"
     inkscape:connector-curvature="0"
     sodipodi:nodetypes="cscccccccscccccccccccc" />
  <path
     style="fill:#00378c;fill-opacity:1;stroke:none"
     d="m 272.33398,281.66211 c -2.63414,-0.0398 -5.4139,0.23242 -8.33398,0.85547 -7.948,1.696 -13.055,6.40142 -19,11.48242 l 0.11178,-9.77764 L 223,284 v 112 h 25 v -40 c 14.077,14.946 38.94398,10.445 50.08398,-6 16.21579,-23.93741 5.33286,-67.86798 -25.75,-68.33789 z m -8.17578,19.37695 c 19.68332,0.23797 22.63117,39.46641 3.8418,44.40235 -24.731,6.497 -28.02,-39.07321 -8,-43.90821 1.4595,-0.35243 2.84598,-0.51 4.1582,-0.49414 z"
     id="path880"
     inkscape:connector-curvature="0"
     sodipodi:nodetypes="cccccccccccccc" />
  <path
     style="fill:#00378c;fill-opacity:1;stroke:none"
     d="m 321,284 v 79 h 25 v -79 z"
     id="path10"
     inkscape:connector-curvature="0"
     sodipodi:nodetypes="ccccc" />
  <g
     aria-label="t"
     transform="matrix(0.9701635,0,0,1.0307541,-0.89038358,0)"
     style="font-style:normal;font-variant:normal;font-weight:bold;font-stretch:normal;font-size:138.19348145px;line-height:1.25;font-family:Verdana;-inkscape-font-specification:'Verdana Bold';letter-spacing:0px;word-spacing:0px;fill:#000000;fill-opacity:1;stroke:none;stroke-width:1.26396358"
     id="text819">
    <path
       d="m 427.59738,351.18692 c -2.60912,0.67477 -5.37569,1.1921 -8.29971,1.55198 -2.92401,0.40486 -6.50031,0.60729 -10.72888,0.60729 -9.44682,0 -16.48695,-1.91185 -21.12039,-5.73556 -4.58846,-3.82371 -6.88269,-10.36901 -6.88269,-19.63589 v -35.42558 h -9.98664 V 276.0847 h 9.98664 v -14.75709 l 24.29183,-6.90312 v 21.66021 h 22.73984 v 16.46446 h -22.73984 v 26.85596 c 0,2.65411 0.0225,4.97083 0.0675,6.95016 0.045,1.97933 0.40488,3.75624 1.07964,5.33071 0.62979,1.57447 1.73192,2.83404 3.30639,3.77872 1.61945,0.8997 3.95866,1.34955 7.01763,1.34955 1.25958,0 2.90153,-0.26991 4.92585,-0.80973 2.0693,-0.53982 3.50881,-1.03465 4.31854,-1.4845 h 2.02432 z"
       style="fill:#00378c;fill-opacity:1;stroke-width:1.26396358"
       id="path821"
       inkscape:connector-curvature="0"
       sodipodi:nodetypes="ccscsccccccccccssccscccc" />
  </g>
</svg>
